<?xml version="1.0" standalone="no"?>
<!DOCTYPE svg PUBLIC "-//W3C//DTD SVG 20010904//EN"
 "http://www.w3.org/TR/2001/REC-SVG-20010904/DTD/svg10.dtd">
<svg version="1.0" xmlns="http://www.w3.org/2000/svg"
 width="506.000000pt" height="506.000000pt" viewBox="0 0 506.000000 506.000000"
 preserveAspectRatio="xMidYMid meet">
<metadata>
Created by potrace 1.14, written by Peter Selinger 2001-2017
</metadata>
<g transform="translate(0.000000,506.000000) scale(0.100000,-0.100000)"
fill="#000000" stroke="none">
<path d="M2355 4779 c-123 -23 -217 -84 -305 -199 -67 -88 -135 -140 -230
-176 -34 -13 -83 -18 -205 -20 -144 -2 -167 -4 -228 -28 -204 -77 -331 -264
-323 -475 4 -106 44 -217 103 -278 35 -38 104 -157 123 -213 24 -70 33 -200
18 -260 -5 -19 -11 -44 -13 -55 -19 -84 -117 -218 -198 -272 -23 -16 -217
-116 -430 -223 -405 -202 -420 -211 -445 -286 -38 -116 51 -251 172 -260 23
-2 79 3 126 11 80 13 138 22 203 31 15 1 31 5 35 8 4 2 32 7 62 11 30 3 69 9
85 12 17 3 41 6 55 8 14 1 39 5 55 8 17 4 48 9 70 12 22 3 81 13 130 21 231
41 355 14 467 -101 39 -40 93 -133 102 -175 5 -22 45 -141 247 -735 28 -82 53
-157 55 -165 6 -23 190 -562 203 -593 6 -16 11 -34 11 -40 0 -23 66 -86 109
-106 78 -34 175 -11 230 56 40 49 54 101 46 177 -15 160 -20 229 -20 331 0 97
3 116 25 160 43 87 130 157 223 179 57 13 152 8 203 -12 111 -42 156 -99 233
-297 28 -72 64 -147 82 -168 76 -92 208 -118 321 -63 78 37 136 125 142 214 1
26 -6 85 -16 132 -11 47 -21 96 -24 110 -3 14 -23 111 -45 215 -23 105 -43
199 -45 210 -4 20 -7 36 -21 105 -9 46 -10 50 -12 53 -2 1 -4 13 -7 27 -4 24
-41 205 -50 245 -17 75 -26 122 -28 137 0 10 122 141 304 323 167 168 306 305
307 305 2 0 16 14 31 31 l28 32 135 1 134 1 163 162 c89 90 162 169 162 176 0
29 -25 37 -119 37 l-95 0 50 50 c27 27 48 56 48 65 -1 8 -2 20 -3 25 0 6 -13
10 -28 10 -19 0 -39 -12 -64 -39 -21 -21 -41 -41 -47 -44 -5 -4 -9 27 -8 79 1
51 -3 93 -10 102 -15 21 -40 23 -55 6 -16 -19 -27 -18 -34 6 -8 26 -59 76 -99
97 -22 12 -54 17 -111 17 -81 -1 -303 -11 -385 -19 -65 -6 -261 -17 -358 -20
-84 -3 -171 11 -252 40 -48 17 -169 95 -209 135 -101 101 -167 245 -186 405
-2 22 -7 56 -10 75 -3 19 -8 52 -10 73 -3 20 -7 54 -10 75 -27 222 -65 316
-163 404 -105 95 -264 142 -397 117z m2213 -1642 c2 -31 -8 -44 -109 -145 -61
-62 -114 -112 -116 -112 -2 0 -3 30 -1 67 2 53 6 67 20 69 65 9 170 83 189
132 11 30 15 28 17 -11z m202 -96 c0 -2 -48 -53 -106 -112 -104 -105 -136
-125 -168 -107 -10 6 -16 5 -16 -1 0 -7 -8 -7 -25 -1 -16 6 -25 6 -25 0 0 -5
-7 -7 -16 -3 -12 4 11 32 92 114 59 59 117 109 128 111 33 5 136 4 136 -1z
m-508 -160 l-2 -88 -315 -314 c-174 -173 -318 -314 -322 -314 -3 0 -8 11 -10
25 -3 23 -32 161 -52 250 -22 98 18 218 94 289 46 43 89 61 479 202 61 22 112
42 115 44 12 12 15 -12 13 -94z"/>
<path d="M3895 2640 c3 -5 8 -10 11 -10 2 0 4 5 4 10 0 6 -5 10 -11 10 -5 0
-7 -4 -4 -10z"/>
</g>
</svg>
